<svg width="36" height="37" viewBox="0 0 36 37" fill="none" xmlns="http://www.w3.org/2000/svg">
<path d="M26.7297 19.1977C26.2327 23.3365 23.522 24.9902 22.3512 26.1907C21.1787 27.3947 21.3887 27.6345 21.4675 29.4002C21.4806 29.6187 21.4489 29.8376 21.3742 30.0433C21.2996 30.249 21.1836 30.4373 21.0334 30.5965C20.8832 30.7557 20.702 30.8825 20.501 30.969C20.3 31.0555 20.0833 31.0999 19.8645 31.0995H15.213C14.9943 31.0991 14.7779 31.0542 14.5772 30.9674C14.3764 30.8807 14.1954 30.7539 14.0452 30.5949C13.8951 30.4359 13.7789 30.248 13.7037 30.0426C13.6286 29.8372 13.5961 29.6186 13.6082 29.4002C13.6082 27.6677 13.7692 27.2652 12.7262 26.1907C11.3962 24.8607 8.26724 22.983 8.26724 17.8187C8.25925 16.536 8.51708 15.2655 9.02449 14.0873C9.53189 12.9092 10.2779 11.8489 11.2154 10.9734C12.1529 10.0978 13.2616 9.42597 14.4717 9.00019C15.6817 8.57441 16.9669 8.40392 18.2461 8.49946C19.5253 8.59501 20.7708 8.95452 21.9042 9.55534C23.0376 10.1562 24.0342 10.9852 24.8312 11.9904C25.6283 12.9955 26.2085 14.1548 26.5352 15.3953C26.862 16.6357 26.9282 17.9304 26.7297 19.1977Z" stroke="#493628" stroke-width="3" stroke-linecap="round" stroke-linejoin="round"/>
<path d="M14.8438 31.0032V33.6492C14.8438 34.372 15.2463 34.9652 15.7415 34.9652H19.3343C19.833 34.9652 20.2338 34.3702 20.2338 33.6492V31.0032M16.1738 12.5583C15.1404 12.5587 14.1496 12.9695 13.4191 13.7003C12.6886 14.4312 12.2783 15.4222 12.2783 16.4555M30.3698 18.1723H33.5793M27.1393 7.65125L29.416 5.3745M28.8893 27.0903L31.166 29.3652M17.5388 1.5V4.09525M5.70875 5.37275L7.96975 7.65125M3.95875 29.3652L6.21975 27.0903M4.70775 18.1723H1.5" stroke="#493628" stroke-width="3" stroke-linecap="round" stroke-linejoin="round"/>
</svg>
